<svg xmlns="http://www.w3.org/2000/svg" viewBox="0 0 100 125"><path d="M90 46c-2.2 0-4 1.8-4 4 0 6.3-1.7 12.5-4.8 18C78 73.5 73.5 78 68 81.2 62.5 84.3 56.3 86 50 86s-12.5-1.7-18-4.8C26.5 78 22 73.5 18.8 68 15.7 62.5 14 56.3 14 50s1.7-12.5 4.8-18C22 26.5 26.5 22 32 18.8c4.3-2.5 9.1-4 14-4.6V50c0 2.2 1.8 4 4 4h25c2.2 0 4-1.8 4-4s-1.8-4-4-4H54V10c0-2.2-1.8-4-4-4-7.7 0-15.3 2-22 5.9S15.8 21.3 11.9 28C8 34.7 6 42.3 6 50s2 15.3 5.9 22S21.3 84.2 28 88.1 42.3 94 50 94s15.3-2 22-5.9S84.2 78.7 88.1 72 94 57.7 94 50c0-2.2-1.8-4-4-4zm-41.5 4c0-.8.7-1.5 1.5-1.5s1.5.7 1.5 1.5-.7 1.5-1.5 1.5-1.5-.7-1.5-1.5zm20-32c.5.3 1 .4 1.5.4 1.1 0 2.1-.6 2.6-1.5.4-.7.5-1.5.3-2.3s-.7-1.4-1.4-1.8c-.5-.3-1-.4-1.5-.4-1.1 0-2.1.6-2.6 1.5-.4.7-.5 1.5-.3 2.3.2.7.7 1.4 1.4 1.8zm16.1 15c.5 0 1-.1 1.5-.4 1.4-.8 1.9-2.7 1.1-4.1-.5-.9-1.5-1.5-2.6-1.5-.5 0-1 .1-1.5.4-.7.4-1.2 1-1.4 1.8-.2.8-.1 1.6.3 2.3.6.9 1.6 1.5 2.6 1.5z" fill="#c1a067"/></svg>