<?xml version="1.0" encoding="utf-8"?>
<!-- Generator: Adobe Illustrator 23.0.2, SVG Export Plug-In . SVG Version: 6.00 Build 0)  -->
<svg version="1.1" id="Режим_изоляции"
	 xmlns="http://www.w3.org/2000/svg" xmlns:xlink="http://www.w3.org/1999/xlink" x="0px" y="0px" viewBox="0 0 50 50"
	 style="enable-background:new 0 0 595.28 841.89;" xml:space="preserve">
<style type="text/css">
	.st0{fill:#EB5A3F;}
</style>
<path class="st0" d="M281.47,241.95c-3.53,0.01-6.4,2.88-6.39,6.41c0,0.73,0.13,1.43,0.36,2.09c0.4,1.15,1.11,2.14,2.04,2.89
	c0.84,0.69,1.43,1.68,1.59,2.81h0c0.01,0.08,0.06,0.15,0.14,0.18c0,0,0.01,0,0.01,0c0.01,0,0.01,0,0.02,0
	c0.58,0.16,1.18,0.27,1.8,0.3c0.15,0.01,0.31,0.01,0.46,0.01c0.15,0,0.3,0,0.46-0.01c0.63-0.03,1.23-0.14,1.81-0.3h0c0,0,0,0,0,0
	c0.07-0.02,0.13-0.08,0.14-0.16c0-0.01,0-0.02,0-0.03c0.15-1.07,0.69-2.02,1.46-2.71c0.1-0.09,0.2-0.17,0.3-0.24
	c0.84-0.73,1.49-1.68,1.86-2.76c0.23-0.66,0.35-1.36,0.35-2.09C287.88,244.82,285,241.95,281.47,241.95 M284.16,251.95
	c-0.85,0.73-1.5,1.68-1.87,2.76c-0.06,0.01-0.13,0.02-0.19,0.02c-0.2,0.02-0.41,0.03-0.62,0.03c-0.21,0-0.42-0.01-0.63-0.03
	c-0.06-0.01-0.12-0.01-0.18-0.02c-0.4-1.14-1.12-2.14-2.04-2.89v0c-1-0.82-1.63-2.06-1.64-3.45c0-2.47,2-4.48,4.48-4.49
	c2.47-0.01,4.49,2,4.49,4.47c0,1.33-0.58,2.53-1.5,3.36C284.37,251.79,284.27,251.87,284.16,251.95"/>
<path class="st0" d="M283.67,247.63c-0.41,0-0.73,0.31-0.77,0.71v0.02c0,0.02,0,0.05,0,0.07c0,0,0,0,0,0
	c-0.04,0.75-0.66,1.35-1.42,1.35c-0.77,0-1.39-0.61-1.42-1.37v-0.02c-0.01-0.42-0.35-0.75-0.77-0.75c-0.42,0-0.77,0.34-0.77,0.77
	c0.03,1.61,1.35,2.91,2.96,2.91c1.6,0,2.9-1.28,2.95-2.87c0,0,0-0.01,0-0.01v-0.05C284.43,247.96,284.09,247.63,283.67,247.63"/>
<path class="st0" d="M283.79,257.04c-0.01,0-0.01,0-0.02,0c0,0-0.01,0-0.01,0c-0.58,0.15-1.18,0.25-1.8,0.28
	c-0.16,0.01-0.32,0.01-0.47,0.01c-0.16,0-0.33,0-0.49-0.01c-0.62-0.03-1.22-0.13-1.8-0.28c0,0-0.01,0-0.01,0c-0.01,0-0.01,0-0.02,0
	c-0.04,0-0.07,0.03-0.08,0.07c0,0.01,0,0.02,0,0.03v0c0.04,0.94,0.63,1.74,1.45,2.08c0.29,0.12,0.6,0.19,0.93,0.19
	c0.33,0,0.65-0.07,0.94-0.19c0.82-0.35,1.4-1.15,1.44-2.09c0,0,0,0,0-0.01v0C283.87,257.08,283.84,257.04,283.79,257.04"/>
</svg>
