<svg xmlns="http://www.w3.org/2000/svg" viewBox="0 0 236.89 132.49"><linearGradient id="a" gradientUnits="userSpaceOnUse" x1="47.111" y1="51.989" x2="179.111" y2="126.489" gradientTransform="matrix(1 0 0 -1 0 134)"><stop offset="0" stop-color="#f6921e"/><stop offset=".51" stop-color="#f8cc33"/><stop offset="1" stop-color="#f6921e"/></linearGradient><path d="M108.25 64.76h-9.09a.38.38 0 01-.38-.38V33.81c0-.55-.45-1-1-1h-3.13c-.55 0-1 .45-1 1v35.07c0 .55.45 1 1 1h13.59c.55 0 1-.45 1-1v-3.15c-.02-.54-.45-.96-.99-.97z" fill="url(#a)"/><linearGradient id="b" gradientUnits="userSpaceOnUse" x1="53.882" y1="39.99" x2="185.881" y2="114.49" gradientTransform="matrix(1 0 0 -1 0 134)"><stop offset="0" stop-color="#f6921e"/><stop offset=".51" stop-color="#f8cc33"/><stop offset="1" stop-color="#f6921e"/></linearGradient><path d="M143.15 32.84H140c-.55 0-1 .45-1 1v24.47c0 .23-.19.42-.42.42a.41.41 0 01-.31-.14L115 32.64c-.41-.37-1.04-.34-1.41.06-.15.16-.24.36-.26.58v35.61c0 .55.45 1 1 1h3.17c.55 0 1-.45 1-1V45.15c0-.23.19-.42.42-.42.12 0 .23.05.31.14l23.27 26c.41.37 1.04.34 1.41-.06.15-.16.24-.36.26-.58V33.8c-.02-.54-.48-.97-1.02-.96z" fill="url(#b)"/><linearGradient id="c" gradientUnits="userSpaceOnUse" x1="51.789" y1="43.701" x2="183.789" y2="118.201" gradientTransform="matrix(1 0 0 -1 0 134)"><stop offset="0" stop-color="#f6921e"/><stop offset=".51" stop-color="#f8cc33"/><stop offset="1" stop-color="#f6921e"/></linearGradient><path d="M118.44 79.55h-.19C92.69 79.55 72 67.51 72 52.67c0-8.4 6.64-14.09 17-17.44.91-.28 1.41-1.25 1.13-2.16-.06-.2-.16-.38-.29-.54A4.573 4.573 0 0084 31.39c-9.31 5.37-15.1 12.92-15.1 21.28C68.87 69 91 82.24 118.25 82.24h.39C145.91 82.24 168 69 168 52.67c0-8.36-5.79-15.91-15.1-21.28a4.57 4.57 0 00-5.9 1.15c-.58.75-.45 1.83.3 2.41.16.13.35.22.54.29 10.4 3.35 17 9 17 17.44 0 14.84-20.73 26.88-46.29 26.88l-.11-.01z" fill="url(#c)"/><linearGradient id="d" gradientUnits="userSpaceOnUse" x1="69.539" y1="12.256" x2="201.539" y2="86.756" gradientTransform="matrix(1 0 0 -1 0 134)"><stop offset="0" stop-color="#f6921e"/><stop offset=".51" stop-color="#f8cc33"/><stop offset="1" stop-color="#f6921e"/></linearGradient><path d="M118.44 93.72c-2.22 0-4.4-.08-6.46-.25a7.294 7.294 0 009.86 3.07 7.274 7.274 0 003.07-3.07c-2.06.17-4.24.26-6.47.25z" fill="url(#d)"/><linearGradient id="e" gradientUnits="userSpaceOnUse" x1="58.358" y1="32.064" x2="190.358" y2="106.564" gradientTransform="matrix(1 0 0 -1 0 134)"><stop offset="0" stop-color="#f6921e"/><stop offset=".51" stop-color="#f8cc33"/><stop offset="1" stop-color="#f6921e"/></linearGradient><path d="M62.74 81.13c-2.61 3-3 7.38-1.26 7.26s2.55-5.57 9.17-3.94 11.67 9.55 34.77 9.69v-.36c-4.52 0-20.71-1.5-32.91-13.7-1.98-1.97-7.17-1.98-9.77 1.05z" fill="url(#e)"/><linearGradient id="f" gradientUnits="userSpaceOnUse" x1="76.719" y1="-.469" x2="208.719" y2="74.031" gradientTransform="matrix(1 0 0 -1 0 134)"><stop offset="0" stop-color="#f6921e"/><stop offset=".51" stop-color="#f8cc33"/><stop offset="1" stop-color="#f6921e"/></linearGradient><path d="M174.15 81.13c2.61 3 3 7.38 1.26 7.26s-2.55-5.57-9.17-3.94-11.67 9.55-34.77 9.69v-.36c4.52 0 20.71-1.5 32.91-13.7 1.98-1.97 7.17-1.98 9.77 1.05z" fill="url(#f)"/><linearGradient id="g" gradientUnits="userSpaceOnUse" x1="40.375" y1="63.919" x2="172.375" y2="138.418" gradientTransform="matrix(1 0 0 -1 0 134)"><stop offset="0" stop-color="#f6921e"/><stop offset=".51" stop-color="#f8cc33"/><stop offset="1" stop-color="#f6921e"/></linearGradient><path d="M29.24 74.45c8.63-2.62 9.08-9.54 20-9.62 4.08 0 8.48 1.6 12.67 5.25.08.07.21.07.29 0h.05c.1-.09.1-.24.01-.34l-.01-.01c-1.23-1.41-9-9.71-17-9.24C36.11 60.45 32.67 73 28.86 71c-1-.8-.22-1.57-.37-2.81a2.289 2.289 0 00-2.42-2c-4.81.25-5.46 10.89 3.17 8.26z" fill="url(#g)"/><linearGradient id="h" gradientUnits="userSpaceOnUse" x1="77.754" y1="-2.304" x2="209.754" y2="72.196" gradientTransform="matrix(1 0 0 -1 0 134)"><stop offset="0" stop-color="#f6921e"/><stop offset=".51" stop-color="#f8cc33"/><stop offset="1" stop-color="#f6921e"/></linearGradient><path d="M207.65 74.45c-8.62-2.62-9.08-9.54-20-9.62-4.08 0-8.48 1.6-12.67 5.25-.08.07-.21.07-.29 0h-.05c-.1-.09-.1-.24-.01-.34l.01-.01c1.23-1.41 9-9.71 17-9.24C200.78 60.45 204.21 73 208 71c1-.8.22-1.57.38-2.81.15-1.2 1.21-2.08 2.42-2 4.83.25 5.48 10.89-3.15 8.26z" fill="url(#h)"/><linearGradient id="i" gradientUnits="userSpaceOnUse" x1="35.483" y1="72.594" x2="167.483" y2="147.094" gradientTransform="matrix(1 0 0 -1 0 134)"><stop offset="0" stop-color="#f6921e"/><stop offset=".51" stop-color="#f8cc33"/><stop offset="1" stop-color="#f6921e"/></linearGradient><path d="M59.11 59.33s-1.5-2-.69-7.25c-5.09-1.77-10.27-9.87 4.88-14.69.29-.11.29-.56-.21-.56-18.62 1.81-17.92 19.87-3.98 22.5z" fill="url(#i)"/><linearGradient id="j" gradientUnits="userSpaceOnUse" x1="63.861" y1="22.318" x2="195.861" y2="96.818" gradientTransform="matrix(1 0 0 -1 0 134)"><stop offset="0" stop-color="#f6921e"/><stop offset=".51" stop-color="#f8cc33"/><stop offset="1" stop-color="#f6921e"/></linearGradient><path d="M177.78 59.33s1.5-2 .69-7.25c5.09-1.77 10.27-9.87-4.87-14.69-.29-.11-.29-.56.21-.56 18.6 1.81 17.9 19.87 3.97 22.5z" fill="url(#j)"/><linearGradient id="k" gradientUnits="userSpaceOnUse" x1="44.386" y1="56.82" x2="176.386" y2="131.32" gradientTransform="matrix(1 0 0 -1 0 134)"><stop offset="0" stop-color="#f6921e"/><stop offset=".51" stop-color="#f8cc33"/><stop offset="1" stop-color="#f6921e"/></linearGradient><path d="M49.73 67.67c-5.62 0-7.28 6.37-10.31 2.54-.19 3.69 2.14 5.15 4.31 5.15 4.34 0 5.66-2.9 9-3.07s7.44 3.7 12.27 3c.18-.03.32-.19.32-.37v-.08c0-.21-.16-.37-.37-.38-7.87-.08-8.05-6.31-15.22-6.79z" fill="url(#k)"/><linearGradient id="l" gradientUnits="userSpaceOnUse" x1="76.929" y1="-.839" x2="208.929" y2="73.661" gradientTransform="matrix(1 0 0 -1 0 134)"><stop offset="0" stop-color="#f6921e"/><stop offset=".51" stop-color="#f8cc33"/><stop offset="1" stop-color="#f6921e"/></linearGradient><path d="M187.16 67.67c5.62 0 7.28 6.37 10.31 2.54.19 3.69-2.14 5.15-4.31 5.15-4.34 0-5.66-2.9-9-3.07s-7.44 3.7-12.27 3a.384.384 0 01-.32-.37v-.08c0-.21.16-.37.37-.38 7.87-.08 8.06-6.31 15.22-6.79z" fill="url(#l)"/><linearGradient id="m" gradientUnits="userSpaceOnUse" x1="29.993" y1="82.313" x2="161.993" y2="156.813" gradientTransform="matrix(1 0 0 -1 0 134)"><stop offset="0" stop-color="#f6921e"/><stop offset=".51" stop-color="#f8cc33"/><stop offset="1" stop-color="#f6921e"/></linearGradient><path d="M64.38 34.5c3.16-4 11.48-10 16.86-13.06.12-.07.17-.22.1-.34-.07-.12-.22-.17-.34-.1-6.18 2.2-15.15 9.85-16.85 12-.49.72-.39 2.1.23 1.5z" fill="url(#m)"/><linearGradient id="n" gradientUnits="userSpaceOnUse" x1="52.214" y1="42.951" x2="184.214" y2="117.451" gradientTransform="matrix(1 0 0 -1 0 134)"><stop offset="0" stop-color="#f6921e"/><stop offset=".51" stop-color="#f8cc33"/><stop offset="1" stop-color="#f6921e"/></linearGradient><path d="M172.51 34.5c-3.16-4-11.48-10-16.86-13.06-.12-.06-.18-.2-.12-.32s.2-.18.32-.12C162 23.21 171 30.86 172.7 33c.53.72.43 2.1-.19 1.5z" fill="url(#n)"/><linearGradient id="o" gradientUnits="userSpaceOnUse" x1="41.224" y1="62.423" x2="173.224" y2="136.923" gradientTransform="matrix(1 0 0 -1 0 134)"><stop offset="0" stop-color="#f6921e"/><stop offset=".51" stop-color="#f8cc33"/><stop offset="1" stop-color="#f6921e"/></linearGradient><path d="M35.69 79.26c-6.06-.07-26.17-.42-35.47-1.51-.12.03-.19.14-.17.26.02.08.08.15.17.17 5.26.67 14.57 1.67 26.72 2.26 27.5 1.33 29.27.74 29.27-1.06-.03-1.44-7.38.05-20.52-.12z" fill="url(#o)"/><linearGradient id="p" gradientUnits="userSpaceOnUse" x1="84.715" y1="-14.633" x2="216.715" y2="59.867" gradientTransform="matrix(1 0 0 -1 0 134)"><stop offset="0" stop-color="#f6921e"/><stop offset=".51" stop-color="#f8cc33"/><stop offset="1" stop-color="#f6921e"/></linearGradient><path d="M201.19 79.26c6.06-.07 26.17-.42 35.47-1.51.12.03.19.14.17.26-.02.08-.08.15-.17.17-5.26.67-14.57 1.67-26.72 2.26-27.5 1.33-29.27.74-29.27-1.06.04-1.44 7.39.05 20.52-.12z" fill="url(#p)"/><linearGradient id="q" gradientUnits="userSpaceOnUse" x1="34.642" y1="74.076" x2="166.642" y2="148.576" gradientTransform="matrix(1 0 0 -1 0 134)"><stop offset="0" stop-color="#f6921e"/><stop offset=".51" stop-color="#f8cc33"/><stop offset="1" stop-color="#f6921e"/></linearGradient><path d="M118.44 6.68c-2.21.13-1.56 8.49-3.9 9.49 0 .6.62.58 1.22 0s1.51-1.91 2.68-2.05c1.17.14 2 1.4 2.68 2.05.68.65 1.22.57 1.22 0-2.34-1-1.69-9.36-3.9-9.49z" fill="url(#q)"/><linearGradient id="r" gradientUnits="userSpaceOnUse" x1="48.951" y1="48.718" x2="180.951" y2="123.218" gradientTransform="matrix(1 0 0 -1 0 134)"><stop offset="0" stop-color="#f6921e"/><stop offset=".51" stop-color="#f8cc33"/><stop offset="1" stop-color="#f6921e"/></linearGradient><path d="M118.44 1.35c-1.9.04-3.79.2-5.67.47-3.27-3.59-9.14-1.28-7.17 1.9.89 1.79 3.83.77 3.47-1.2 1.42.29 2.53 1.75 3 3.55 1 3.64-2.08 7.36-4.69 8.26l-.62.1c-4.58-3.48-10.07-8.22-16.66-7-2.72.48-5.4 2.57-5.7 5.57-.79 8.1 10.14 7.84 9.5.68-.22-2.53-3.72-2.46-3.72.74.09 1-1.49 1.84-2.06.59a3.1 3.1 0 011.41-4.14c.12-.06.25-.11.38-.15 4.77-1 11.83 6 17.29 7.53-1.05.14-2.85.3-3.88.48a9.327 9.327 0 01-4.22-2.57c-1.59-.92 0 1.69 1 3.18-22.5 4.72-38.74 18.05-38.74 33.77 0 19.69 25.47 35.65 56.89 35.65h.38c31.42 0 56.89-16 56.89-35.65 0-15.72-16.24-29.06-38.78-33.8 1-1.48 2.62-4.09 1-3.18a9.327 9.327 0 01-4.22 2.57c-1-.18-2.82-.34-3.88-.48 5.51-1.55 12.56-8.52 17.36-7.52a3.088 3.088 0 011.77 4.3c-.58 1.25-2.16.42-2.06-.59 0-3.19-3.49-3.27-3.72-.74-.64 7.16 10.29 7.42 9.5-.68-.3-3-3-5.07-5.68-5.61-6.58-1.18-12.07 3.56-16.66 7l-.62-.1c-2.61-.9-5.69-4.63-4.69-8.26.45-1.8 1.56-3.26 3-3.55-.36 2 2.58 3 3.47 1.2 2-3.17-3.9-5.49-7.17-1.9-1.89-.26-3.79-.4-5.7-.42zm0 16.11h-.19c-2 0-3.97.06-5.92.19a19.67 19.67 0 01-4.87-2.65c4.6-1.78 7.7-5.47 7.1-9.4-.15-.78-.4-1.53-.75-2.24 1.51-.41 3.06-.65 4.63-.71 1.57.06 3.12.3 4.63.71-.35.71-.6 1.46-.75 2.24-.6 3.93 2.5 7.62 7.1 9.4a19.636 19.636 0 01-4.87 2.64c-1.95-.13-3.92-.19-5.92-.19l-.19.01zm0 68.87h-.19c-29.88 0-54.1-14.91-54.1-33.31s24.22-33.31 54.1-33.31h.38c29.88 0 54.1 14.91 54.1 33.31s-24.22 33.31-54.1 33.31h-.19z" fill="url(#r)"/><linearGradient id="s" gradientUnits="userSpaceOnUse" x1="80.406" y1="-7.005" x2="212.405" y2="67.495" gradientTransform="matrix(1 0 0 -1 0 134)"><stop offset="0" stop-color="#f6921e"/><stop offset=".51" stop-color="#f8cc33"/><stop offset="1" stop-color="#f6921e"/></linearGradient><path d="M44.66 129.34h10.78v2.73H41.37v-25.22h3.29v22.49zm27.7-7.26c.01.52-.02 1.03-.11 1.54H59.56c.07 4.42 2.88 6.25 6.18 6.25a11.9 11.9 0 005-.94l.6 2.36c-1.92.81-3.98 1.2-6.06 1.16-5.54 0-8.91-3.71-8.91-9.13s3.26-9.77 8.53-9.77c5.92 0 7.46 5.2 7.46 8.53zm-3.18-.82c0-2.1-.86-5.35-4.53-5.35-3.37 0-4.79 3.07-5.05 5.35h9.58zm15.53-7.71a6.704 6.704 0 00-6 3.37h-.07l-.19-3h-2.91c.11 1.5.15 3 .15 4.9v13.21H79v-10.88c-.01-.52.07-1.03.22-1.53a4.734 4.734 0 014.42-3.37c3.11 0 4.19 2.47 4.19 5.39v10.44h3.29v-10.82c-.01-6.26-3.9-7.71-6.41-7.71zm27.4 9.28c0 6.74-4.68 9.66-9 9.66-4.87 0-8.68-3.59-8.68-9.32 0-6.06 4-9.62 9-9.62 5.16 0 8.67 3.78 8.67 9.28h.01zm-3.37.11c0-3.07-1.53-6.92-5.43-6.92s-5.54 3.59-5.54 7c0 4 2.25 7 5.43 7 3.18-.02 5.54-2.96 5.54-7.08zm26.69-9.39c-1.44-.06-2.86.39-4 1.27-.85.62-1.56 1.43-2.06 2.36h-.07a5.35 5.35 0 00-5.09-3.63 6.276 6.276 0 00-5.73 3.33h-.11l-.15-2.92h-2.88c.08 1.5.15 3 .15 4.9v13.21h3.22v-10.92a4.914 4.914 0 014.34-4.9c2.51 0 3.78 2.06 3.78 4.94v10.89h3.22v-11.23c.01-.56.09-1.12.26-1.65a4.328 4.328 0 013.93-3c2.62 0 3.93 2.06 3.93 5.58v10.26h3.22v-10.63c.02-6.29-3.54-7.86-5.96-7.86zm23.32 14.19c-.02 1.45.07 2.9.26 4.34h-3l-.3-2.28h-.11a6.695 6.695 0 01-5.54 2.7 5.163 5.163 0 01-5.53-4.77c-.01-.14-.02-.29-.01-.43 0-4.38 3.89-6.77 10.89-6.74v-.37c0-1.5-.41-4.23-4.12-4.19-1.68-.02-3.33.45-4.75 1.35l-.75-2.21a11.8 11.8 0 016-1.57c5.58 0 6.92 3.78 6.92 7.41l.04 6.76zm-3.22-4.9c-3.59-.08-7.67.56-7.67 4.08a2.884 2.884 0 002.62 3.13c.15.01.3.01.45.01 1.98.07 3.77-1.14 4.45-3 .1-.32.15-.66.15-1v-3.22zm8.46 4.94c-1.23-.01-2.24.97-2.25 2.21v.15a2.19 2.19 0 002.03 2.35c.05 0 .09.01.14.01 1.22.02 2.23-.94 2.25-2.16v-.2c.1-1.2-.78-2.26-1.98-2.36-.06-.01-.12-.01-.18-.01l-.01.01zm7.78-10.26h-.11l-.16-3.52h-2.88c.11 1.68.15 3.52.15 5.65v12.46h3.29v-9.69c0-.51.03-1.02.11-1.53.45-2.43 2.1-4.19 4.42-4.19.37 0 .75.02 1.12.07v-3.11c-.3-.04-.6-.07-.9-.07a5.478 5.478 0 00-5.05 3.93h.01zm23.65 9.58V114h-3.29v11c.01.57-.09 1.14-.3 1.68a4.745 4.745 0 01-4.34 3c-3 0-4-2.36-4-5.8V114h-3.29v10.59c0 6.33 3.41 7.94 6.25 7.94 2.46.05 4.76-1.24 6-3.37h.07l.19 3h2.92c-.18-1.5-.22-3.16-.21-5.06z" fill="url(#s)"/></svg>