<?xml version="1.0" encoding="utf-8"?>
<!-- Generator: Adobe Illustrator 23.0.2, SVG Export Plug-In . SVG Version: 6.00 Build 0)  -->
<svg version="1.1" id="Режим_изоляции"
	 xmlns="http://www.w3.org/2000/svg" xmlns:xlink="http://www.w3.org/1999/xlink" x="0px" y="0px" viewBox="0 0 24 24"
	 style="enable-background:new 0 0 24 24;" xml:space="preserve">
<path d="M12,15.53c-0.41,0-0.73-0.06-0.98-0.18c-0.26-0.14-0.44-0.28-0.55-0.43c-0.24-0.45-0.38-0.68-0.4-0.7
	c-0.08-0.24-0.2-0.45-0.36-0.61c-0.2-0.14-0.41-0.21-0.61-0.21c-0.28,0-0.52,0.09-0.7,0.27c-0.18,0.18-0.27,0.4-0.27,0.64
	c0,0.39,0.14,0.8,0.43,1.25c0.26,0.4,0.63,0.74,1.1,1c0.65,0.35,1.45,0.52,2.4,0.52c0.79,0,1.49-0.12,2.1-0.36
	c0.61-0.28,1.06-0.64,1.34-1.07c0.3-0.47,0.46-0.98,0.46-1.52c0-0.44-0.08-0.85-0.24-1.22c-0.16-0.3-0.42-0.58-0.76-0.82
	c-0.36-0.23-0.75-0.41-1.16-0.55c-0.69-0.2-1.18-0.34-1.46-0.4c-0.14-0.02-0.32-0.06-0.53-0.11c-0.21-0.05-0.35-0.09-0.41-0.11
	c-0.24-0.08-0.42-0.15-0.52-0.21c-0.16-0.08-0.29-0.19-0.4-0.34c-0.1-0.1-0.15-0.23-0.15-0.4c0-0.24,0.14-0.45,0.43-0.64
	c0.27-0.2,0.65-0.31,1.16-0.31c0.51,0,0.88,0.09,1.13,0.27c0.26,0.23,0.46,0.48,0.58,0.76c0.16,0.26,0.3,0.45,0.4,0.55
	c0.16,0.12,0.35,0.18,0.58,0.18c0.26,0,0.5-0.1,0.7-0.31c0.18-0.18,0.27-0.4,0.27-0.67c0-0.2-0.07-0.47-0.21-0.79
	c-0.16-0.24-0.38-0.49-0.64-0.73c-0.28-0.22-0.66-0.42-1.13-0.58c-0.48-0.14-1-0.21-1.55-0.21c-0.73,0-1.38,0.11-1.95,0.34
	c-0.57,0.2-1,0.51-1.31,0.91c-0.31,0.41-0.46,0.87-0.46,1.4c0,0.53,0.14,0.98,0.43,1.37c0.35,0.4,0.73,0.69,1.16,0.85
	c0.49,0.22,1.08,0.41,1.77,0.55c0.12,0.02,0.27,0.06,0.44,0.11c0.17,0.05,0.32,0.09,0.46,0.12c0.13,0.03,0.24,0.06,0.32,0.07
	c0.28,0.1,0.52,0.24,0.7,0.43c0.18,0.14,0.27,0.35,0.27,0.64c0,0.35-0.16,0.63-0.49,0.85C13.01,15.41,12.55,15.53,12,15.53" fill="#c1a067"/>
</svg>
