<svg xmlns="http://www.w3.org/2000/svg" xmlns:xlink="http://www.w3.org/1999/xlink"><symbol id="icon-basket" viewBox="0 0 100 125"><path d="M50 5c-8.27 0-15 6.73-15 15v5H17.5a2.5 2.5 0 00-2.5 2.5v65a2.5 2.5 0 002.5 2.5h65a2.5 2.5 0 002.5-2.5v-65a2.5 2.5 0 00-2.5-2.5H65v-5c0-8.27-6.73-15-15-15zM40 20c0-5.51 4.49-10 10-10s10 4.49 10 10v5H40v-5zm40 10v60H20V30h15v7.5a2.5 2.5 0 005 0V30h20v7.5a2.5 2.5 0 005 0V30h15z"/></symbol><symbol id="icon-search" viewBox="0 0 512 512"><path d="M344.5 298c15-23.6 23.8-51.6 23.8-81.7 0-84.1-68.1-152.3-152.1-152.3C132.1 64 64 132.2 64 216.3s68.1 152.3 152.1 152.3c30.5 0 58.9-9 82.7-24.4l6.9-4.8L414.3 448l33.7-34.3-108.5-108.6 5-7.1zm-43.1-166.8c22.7 22.7 35.2 52.9 35.2 85s-12.5 62.3-35.2 85-52.9 35.2-85 35.2-62.3-12.5-85-35.2-35.2-52.9-35.2-85 12.5-62.3 35.2-85 52.9-35.2 85-35.2 62.3 12.5 85 35.2z" stroke="#c1a067" stroke-width="4" stroke-miterlimit="10"/></symbol><symbol id="icon-toggle-left" viewBox="0 0 512 512"><path d="M351.98 396.61l-20.7 19.4L160 255.99 331.32 96.01l20.7 19.3L201.5 255.99z"/></symbol><symbol id="icon-toggle-right" viewBox="0 0 512 512"><path d="M160 115.4L180.7 96 352 256 180.7 416 160 396.7 310.5 256z"/></symbol></svg>